<?xml version="1.0" standalone="no"?>
<!DOCTYPE svg PUBLIC "-//W3C//DTD SVG 20010904//EN"
 "http://www.w3.org/TR/2001/REC-SVG-20010904/DTD/svg10.dtd">
<svg version="1.0" xmlns="http://www.w3.org/2000/svg"
 width="300.000000pt" height="300.000000pt" viewBox="0 0 300.000000 300.000000"
 preserveAspectRatio="xMidYMid meet">
<metadata>
Created by potrace 1.14, written by Peter Selinger 2001-2017
</metadata>
<g transform="translate(0.000000,300.000000) scale(0.100000,-0.100000)"
fill="#000000" stroke="none">
<path d="M0 1500 l0 -1500 1500 0 1500 0 0 1500 0 1500 -1500 0 -1500 0 0
-1500z m471 1194 c8 -10 22 -14 41 -10 26 5 58 -13 58 -34 0 -5 14 -32 32 -60
21 -35 35 -47 42 -40 18 18 26 11 14 -15 -12 -27 2 -55 28 -55 7 0 23 -18 35
-40 22 -40 50 -58 29 -20 -8 15 -8 20 2 20 8 0 19 -15 26 -32 11 -30 14 -31
25 -16 7 10 25 36 41 59 29 41 48 41 26 0 -16 -30 -1 -26 49 14 24 19 47 33
50 30 4 -2 22 12 40 30 33 35 51 44 51 25 0 -18 33 -10 67 16 22 17 38 23 46
17 7 -6 31 -3 62 8 31 11 42 18 28 18 -13 1 -23 7 -23 14 0 13 114 16 127 4
15 -16 51 -6 57 16 l7 22 9 -22 9 -23 56 22 c58 22 83 18 49 -7 -18 -13 -16
-14 25 -15 32 0 51 6 67 20 l21 21 31 -25 c23 -20 37 -25 61 -20 24 5 31 3 31
-10 0 -11 9 -16 32 -16 l31 0 -23 25 c-33 35 -16 44 20 10 16 -16 40 -29 52
-31 13 -1 25 -3 27 -3 2 -1 -2 -8 -9 -16 -10 -12 -7 -15 15 -21 14 -4 31 -2
37 4 10 10 48 5 48 -7 0 -4 -5 -12 -10 -17 -7 -7 -2 -15 16 -25 21 -11 28 -11
31 -1 7 18 21 15 27 -6 4 -11 25 -23 53 -31 74 -20 81 -23 61 -28 -28 -7 -21
-20 21 -36 21 -9 48 -29 60 -46 16 -22 26 -28 44 -23 20 5 20 4 8 -11 -12 -15
-10 -19 10 -37 13 -10 27 -19 32 -20 4 0 20 27 35 60 15 33 33 60 40 60 16 0
15 -11 -4 -38 -9 -13 -13 -26 -10 -29 17 -17 86 84 86 127 0 11 7 20 15 20 12
0 14 -7 9 -27 -5 -26 -2 -25 41 20 46 47 69 60 59 32 -7 -17 9 -19 37 -5 38
21 18 -6 -36 -48 -52 -41 -67 -62 -45 -62 6 0 10 -5 10 -11 0 -7 -11 -9 -31
-5 -26 5 -32 2 -36 -15 -3 -11 -24 -30 -47 -41 -39 -21 -40 -22 -16 -28 28 -7
20 -15 -27 -25 -41 -8 -42 -19 -3 -35 46 -19 50 -34 7 -26 -47 9 -42 -9 17
-58 29 -23 42 -42 42 -58 -1 -18 5 -24 27 -26 28 -3 28 -4 11 -23 -15 -16 -15
-23 -5 -46 12 -26 14 -26 25 -10 20 27 29 20 22 -17 -8 -42 15 -103 47 -128
12 -9 19 -20 15 -24 -4 -4 -14 -1 -23 6 -30 25 -16 -26 20 -71 38 -48 42 -59
21 -59 -27 0 -26 -17 5 -80 32 -66 31 -91 -3 -50 l-20 25 4 -40 c3 -22 15 -73
27 -112 11 -40 21 -80 21 -88 0 -26 -18 -7 -25 25 -11 49 -25 34 -25 -26 0
-46 2 -54 13 -45 19 16 30 1 13 -18 -8 -9 -24 -34 -36 -56 -20 -35 -22 -48
-16 -114 6 -67 6 -73 -8 -61 -9 7 -16 22 -17 34 -1 42 -29 -41 -30 -93 -2 -49
-10 -63 -24 -41 -7 11 -25 4 -25 -8 0 -4 15 -14 33 -21 l32 -14 -45 -6 c-42
-6 -45 -8 -50 -41 -4 -28 -9 -35 -27 -33 -42 5 -110 -117 -76 -136 19 -10 8
-32 -12 -24 -8 3 -15 1 -15 -4 0 -17 24 -33 48 -33 19 0 23 -4 19 -20 -3 -11
2 -27 10 -36 14 -13 18 -13 39 1 34 22 38 19 14 -12 l-21 -27 50 -23 c28 -12
51 -27 51 -34 0 -6 -7 -8 -16 -5 -12 5 -14 1 -9 -17 4 -12 16 -31 26 -43 41
-44 16 -43 -37 2 -44 38 -57 45 -64 34 -13 -20 -24 -5 -24 33 -1 25 -6 33 -23
35 -15 2 -29 17 -41 45 -11 23 -31 53 -45 65 l-25 24 10 -41 c11 -43 4 -66
-12 -41 -6 8 -10 24 -10 36 0 11 -5 25 -11 31 -15 15 -79 -34 -79 -59 0 -11
-8 -18 -20 -18 -10 0 -24 -9 -30 -20 -6 -10 -16 -17 -24 -14 -8 3 -30 -15 -54
-43 -40 -47 -64 -55 -42 -14 13 26 5 26 -40 1 -29 -15 -32 -20 -17 -25 33 -13
17 -25 -27 -19 -24 4 -52 2 -62 -4 -17 -10 -16 -11 9 -17 51 -13 27 -24 -41
-18 -79 6 -122 -8 -101 -33 10 -13 7 -14 -27 -8 -32 5 -43 2 -58 -15 -24 -26
-40 -27 -26 -2 5 11 10 22 10 25 0 15 -49 4 -80 -18 -62 -42 -106 -46 -57 -5
l22 18 -22 1 c-12 0 -24 -4 -28 -10 -3 -5 -19 -19 -36 -31 l-30 -21 6 25 c8
32 -19 43 -51 22 -30 -20 -51 -20 -35 -1 9 11 7 15 -11 20 -14 3 -27 0 -33 -8
-6 -8 -22 -14 -35 -14 -14 1 -40 -3 -57 -7 -22 -5 -33 -4 -33 4 0 6 11 13 25
17 14 3 25 10 25 15 0 15 -81 31 -121 24 -33 -6 -38 -4 -33 9 4 11 1 16 -10
16 -9 0 -16 -5 -16 -12 0 -6 -7 -4 -18 5 -10 10 -21 15 -24 12 -2 -3 -17 9
-33 25 -21 22 -38 30 -63 30 -25 0 -33 4 -29 14 6 16 -36 38 -57 30 -8 -3 -29
13 -51 41 -26 31 -43 44 -55 40 -12 -4 -22 5 -36 30 -22 41 -34 45 -34 10 0
-14 -4 -25 -10 -25 -5 0 -10 13 -10 29 0 17 -4 32 -8 35 -12 7 -144 -123 -178
-173 -15 -23 -31 -41 -35 -41 -12 0 -11 17 1 25 6 3 10 11 10 17 0 6 -10 2
-22 -9 -30 -27 -105 -73 -118 -73 -6 0 5 20 25 44 22 28 33 49 29 60 -5 12 0
16 22 16 16 0 37 7 47 14 17 13 23 28 10 24 -5 -2 -10 2 -12 7 -2 6 18 21 46
35 27 14 64 36 82 49 30 22 32 26 17 36 -22 16 -20 25 4 25 21 0 26 16 11 39
-6 10 -13 11 -29 2 -11 -6 -23 -11 -26 -11 -13 0 -5 24 12 36 16 12 16 15 -8
58 -26 48 -42 61 -33 26 3 -11 1 -20 -5 -20 -6 0 -13 13 -16 30 -3 16 -9 44
-12 61 -4 23 -9 28 -15 18 -12 -21 -17 -9 -23 60 -6 71 -13 85 -27 58 -18 -32
-29 -7 -14 30 19 46 19 50 -6 56 -17 4 -20 12 -17 38 3 28 -1 34 -22 39 l-25
6 23 13 c22 11 23 17 20 111 -3 87 -5 100 -20 100 -24 0 -23 16 1 23 17 4 18
9 9 55 -10 48 -9 53 16 82 30 36 33 50 11 50 -22 0 -19 21 4 27 21 5 31 46 31
131 0 28 5 52 10 52 6 0 10 -5 10 -11 0 -5 4 -7 10 -4 6 3 10 38 10 78 0 52 3
68 11 60 18 -18 51 24 61 75 9 52 16 62 27 43 5 -7 13 -11 19 -7 11 6 43 71
46 92 3 21 16 30 25 16 6 -10 11 -10 21 2 10 13 9 17 -4 22 -25 9 -19 27 7 20
17 -4 29 2 47 24 14 17 31 30 38 30 24 0 6 24 -34 47 -22 13 -41 32 -44 45 -4
15 -22 31 -54 46 -36 17 -45 26 -38 35 15 18 3 32 -43 52 -28 13 -35 19 -23
22 16 4 15 8 -7 37 -14 18 -25 38 -25 43 0 6 -7 16 -15 23 -8 7 -15 16 -15 21
0 14 16 10 31 -7z"/>
<path d="M520 2665 c0 -18 19 -40 26 -32 4 4 0 15 -9 24 -9 10 -17 13 -17 8z"/>
<path d="M1378 2586 c-7 -7 -21 -23 -31 -35 -10 -12 -22 -19 -28 -15 -7 4 -5
12 5 23 23 26 20 31 -15 21 -17 -5 -49 -30 -71 -55 -48 -54 -69 -59 -34 -8 14
20 24 39 21 41 -9 9 -56 -9 -49 -19 3 -6 -3 -13 -15 -16 -12 -3 -21 -12 -21
-19 0 -17 -1 -17 -36 -4 -32 13 -84 -4 -84 -26 0 -14 -12 -18 -38 -15 -7 1
-31 -9 -53 -22 l-41 -25 31 -7 c51 -11 35 -25 -27 -25 -45 0 -63 -5 -76 -18
-15 -18 -15 -20 10 -45 15 -15 30 -24 35 -21 11 6 69 -17 69 -28 0 -5 -12 -8
-27 -8 -25 0 -26 0 -8 -20 10 -11 29 -20 42 -20 24 0 32 -15 11 -23 -10 -3
-10 -7 1 -20 7 -9 18 -14 24 -10 6 3 20 -6 33 -22 l22 -28 78 12 c44 7 126 19
184 27 206 30 507 75 658 100 84 14 157 22 162 19 6 -4 8 -51 5 -121 -4 -74
-2 -114 4 -114 14 0 58 68 66 103 4 15 11 27 16 27 12 0 11 -17 -1 -41 -6 -10
-8 -19 -5 -19 12 0 95 75 95 86 0 6 9 23 20 37 23 29 25 37 9 37 -6 0 -29 20
-51 45 -43 48 -55 54 -60 29 -2 -12 -14 -1 -37 34 -30 42 -60 66 -116 91 -5 2
-4 -3 4 -13 29 -35 0 -27 -45 13 -38 33 -50 39 -66 30 -10 -6 -36 -9 -56 -7
-37 4 -34 7 16 24 14 5 12 8 -13 21 -20 11 -30 12 -33 4 -6 -17 -18 -14 -62
15 -31 21 -43 24 -54 15 -10 -9 -24 -7 -57 9 -24 11 -64 19 -89 19 l-45 -1 33
-14 c39 -17 43 -37 5 -28 -43 11 -71 22 -76 31 -10 16 -68 5 -91 -16 -29 -27
-56 -29 -32 -2 20 22 5 39 -16 17z"/>
<path d="M730 2280 c-24 -18 -24 -19 -6 -39 20 -22 16 -25 -32 -21 -16 1 -25
-5 -29 -19 -3 -12 -11 -21 -18 -21 -11 0 -16 -12 -29 -85 -2 -11 -4 -23 -5
-26 0 -4 -14 -5 -31 -3 -32 4 -40 -9 -14 -24 11 -6 13 -12 6 -16 -6 -3 -13 -2
-17 4 -11 18 -23 11 -34 -21 -14 -40 -14 -39 5 -39 23 0 11 -24 -14 -28 -26
-4 -36 -33 -27 -78 3 -21 2 -34 -5 -34 -5 0 -10 5 -10 12 0 29 -18 -11 -27
-60 -9 -44 -7 -59 7 -87 21 -40 15 -52 -13 -28 -20 18 -20 17 -14 -14 3 -17 0
-56 -9 -85 -25 -91 -25 -94 -4 -113 24 -22 26 -40 4 -31 -14 6 -16 0 -11 -36
3 -24 9 -54 13 -67 6 -20 4 -23 -9 -18 -23 9 -21 -3 9 -57 27 -48 26 -69 -1
-46 -17 14 -19 3 -6 -33 6 -14 28 -35 50 -48 60 -34 52 -50 -11 -24 -15 6 -16
3 -8 -27 5 -18 21 -43 36 -56 18 -16 24 -29 21 -44 -8 -30 27 -78 52 -71 10 3
22 0 26 -7 4 -7 -1 -14 -14 -17 -27 -7 -27 -23 0 -23 15 0 19 -4 15 -16 -9
-23 20 -64 44 -64 25 0 25 4 0 38 -59 80 -24 209 71 258 36 18 110 18 156 -1
20 -8 38 -13 40 -11 6 6 11 128 18 416 4 135 8 270 10 300 2 30 4 117 4 193 1
132 2 138 23 146 21 7 20 10 -21 39 -24 17 -59 37 -77 44 -39 14 -44 25 -12
30 22 3 22 4 -7 35 -39 41 -64 47 -95 23z"/>
<path d="M2345 2163 c-22 -8 -47 -21 -55 -29 -13 -14 -12 -14 14 -4 16 6 31 8
34 5 7 -7 5 -9 -64 -43 -33 -17 -83 -48 -111 -70 l-51 -41 -6 -218 c-4 -120
-9 -265 -11 -323 -2 -58 -7 -189 -11 -291 l-7 -187 54 -35 c76 -51 94 -66 85
-74 -4 -4 -17 -1 -29 6 -12 7 -4 -5 17 -27 22 -23 49 -42 60 -44 14 -2 20 -10
19 -23 -1 -12 7 -26 17 -33 23 -14 25 -9 10 19 -7 12 -7 19 -1 19 6 0 15 -9
21 -20 19 -35 33 -12 26 41 -7 51 7 69 18 24 6 -24 7 -25 31 -9 31 20 32 30 4
37 -26 7 -16 27 15 27 35 0 45 17 35 58 -19 80 -3 139 21 77 10 -25 43 -34 55
-15 3 6 -3 10 -14 10 -29 0 -26 18 4 26 14 3 25 13 25 22 0 8 7 24 16 34 16
16 16 18 0 24 -20 8 -21 24 -1 24 19 0 19 10 0 46 -17 34 -19 54 -5 54 6 0 10
-4 10 -8 0 -5 7 -17 16 -28 14 -18 15 -17 9 20 -5 31 -4 38 8 33 11 -4 13 0
10 14 -3 10 -10 19 -15 19 -12 0 -2 49 23 104 21 49 23 116 2 116 -16 0 -17
14 -2 41 8 16 7 25 -5 38 -20 22 -21 45 -1 37 29 -11 16 34 -20 70 -38 37 -44
54 -20 54 25 0 17 43 -16 88 -32 44 -33 66 -2 41 15 -12 16 -12 10 4 -4 11
-10 30 -13 43 -4 14 -14 29 -24 34 -10 6 -20 22 -22 37 -2 18 -14 35 -35 48
-35 22 -42 35 -18 35 18 0 18 5 4 31 -6 11 -17 18 -24 15 -8 -3 -18 7 -25 25
-16 38 -17 38 -65 22z"/>
<path d="M1850 1889 c-30 -4 -89 -12 -130 -18 -41 -5 -104 -15 -140 -21 -94
-16 -117 -20 -193 -27 -37 -3 -70 -10 -73 -14 -5 -9 97 -131 104 -125 2 3 -2
14 -8 26 -10 18 -9 22 2 18 7 -2 24 -27 38 -54 29 -59 77 -124 91 -124 5 0 9
14 9 32 0 17 3 28 8 24 4 -4 7 -16 7 -27 0 -34 18 -22 48 32 35 64 35 64 43
56 4 -4 -1 -18 -10 -33 -30 -45 -11 -36 41 19 28 30 63 77 77 106 26 50 53 62
41 18 -5 -16 7 -8 40 26 25 26 49 47 53 47 4 0 21 11 37 25 l30 24 -30 -1
c-16 0 -55 -4 -85 -9z"/>
<path d="M1980 1846 c-35 -20 -56 -40 -58 -54 -2 -14 -8 -19 -18 -15 -19 7
-59 -28 -43 -38 17 -10 3 -27 -30 -34 -39 -8 -117 -75 -100 -86 8 -5 -13 -24
-64 -56 -77 -48 -92 -68 -59 -80 27 -9 111 -67 112 -77 0 -4 -9 -6 -20 -3 -11
3 -20 2 -20 -2 0 -14 46 -51 63 -51 11 0 17 -8 17 -23 0 -31 29 -57 63 -57 27
0 39 -24 15 -32 -8 -3 -6 -11 7 -25 14 -14 38 -22 75 -26 30 -3 68 -9 84 -13
24 -6 28 -4 23 8 -3 9 -2 110 3 224 17 397 19 474 12 474 -4 -1 -32 -16 -62
-34z"/>
<path d="M1086 1784 c-50 -7 -93 -17 -97 -21 -4 -5 -10 -69 -14 -143 -14 -323
-24 -595 -20 -598 8 -8 54 34 55 49 0 16 30 49 44 49 3 0 24 12 46 26 30 20
38 30 30 39 -13 16 1 28 22 20 21 -8 65 30 73 62 7 31 21 43 48 43 18 0 87 49
87 61 0 3 -12 4 -26 1 -48 -9 -21 20 29 33 50 13 90 44 119 93 l18 29 -60 37
c-58 36 -73 64 -27 50 34 -10 -68 91 -120 118 -45 24 -55 38 -27 38 14 0 14 3
4 15 -15 18 -63 18 -184 -1z"/>
<path d="M361 1584 c0 -11 3 -14 6 -6 3 7 2 16 -1 19 -3 4 -6 -2 -5 -13z"/>
<path d="M1487 1422 c-19 -20 -39 -49 -42 -65 -8 -32 -24 -45 -35 -27 -9 15
-47 -9 -90 -55 -25 -27 -25 -27 -2 -21 46 15 19 -12 -50 -50 -62 -34 -73 -44
-79 -72 -10 -52 -38 -69 -30 -19 0 4 -3 7 -8 7 -7 0 -44 -47 -105 -135 -21
-30 -30 -11 -10 19 26 41 13 39 -38 -4 -43 -37 -46 -43 -45 -88 1 -38 -6 -57
-31 -94 -37 -54 -88 -78 -166 -78 -39 0 -60 -5 -77 -20 -24 -20 -24 -20 -5
-35 11 -8 28 -12 39 -9 14 4 17 1 15 -12 -2 -13 6 -20 30 -25 41 -8 51 -17 32
-29 -11 -7 -5 -10 22 -10 20 0 40 -4 43 -10 4 -6 -7 -10 -27 -10 -42 -1 -20
-15 39 -25 52 -8 84 -30 64 -44 -23 -15 25 -34 70 -27 24 4 39 2 39 -4 0 -5
11 -10 24 -10 14 0 28 -4 31 -10 3 -5 -3 -10 -14 -10 -34 0 -24 -16 18 -28 49
-15 52 -15 45 3 -8 21 1 19 45 -11 50 -33 118 -44 127 -20 9 22 24 20 24 -4 0
-12 8 -22 23 -25 34 -8 67 -2 67 12 0 18 17 16 24 -3 5 -13 14 -11 60 14 55
30 92 28 80 -3 -7 -17 11 -20 22 -4 3 6 17 8 31 4 23 -5 24 -4 18 28 -5 25 -2
37 11 47 15 13 16 12 10 -17 -11 -49 2 -59 35 -27 31 29 40 23 12 -8 -26 -29
1 -22 73 18 35 20 64 31 64 25 0 -5 -8 -15 -17 -20 -17 -10 -17 -10 1 -11 11
0 39 20 63 45 49 52 56 55 43 20 l-10 -25 40 20 c44 22 51 31 20 23 -11 -3
-20 0 -20 6 0 6 16 11 35 11 30 0 39 5 56 35 21 36 48 40 29 4 -6 -10 -8 -19
-5 -19 11 0 81 48 95 65 14 16 12 17 -19 10 -20 -4 -31 -3 -28 2 3 5 31 15 62
22 31 7 59 19 62 27 8 22 -16 44 -48 44 -19 0 -29 5 -29 15 0 8 6 15 13 15 8
0 9 3 1 8 -6 4 -18 21 -27 38 -9 17 -23 37 -32 44 -15 12 -16 11 -9 -15 16
-64 -44 9 -79 96 -4 11 -10 9 -24 -8 -59 -70 -169 -85 -241 -33 -68 49 -88
105 -70 194 8 44 19 67 45 92 l34 34 -27 35 c-30 40 -38 44 -29 15 14 -45 -17
-15 -55 53 -37 66 -82 127 -94 127 -3 0 0 -14 6 -31 15 -44 2 -48 -16 -4 -9
21 -16 41 -16 46 0 15 -20 10 -26 -6 -9 -22 -27 -18 -21 5 9 34 -8 31 -46 -8z"/>
<path d="M2497 953 c-4 -3 -7 -11 -7 -17 0 -6 5 -5 12 2 6 6 9 14 7 17 -3 3
-9 2 -12 -2z"/>
<path d="M620 750 c-13 -8 -12 -10 3 -10 9 0 17 5 17 10 0 12 -1 12 -20 0z"/>
<path d="M1548 389 c-10 -5 -18 -14 -18 -19 0 -14 28 -1 34 16 6 16 6 16 -16
3z"/>
</g>
</svg>
